<?xml version="1.0" standalone="no"?><!DOCTYPE svg PUBLIC "-//W3C//DTD SVG 1.1//EN" "http://www.w3.org/Graphics/SVG/1.1/DTD/svg11.dtd"><svg t="1623824907212" class="icon" viewBox="0 0 1024 1024" version="1.1" xmlns="http://www.w3.org/2000/svg" p-id="1534" xmlns:xlink="http://www.w3.org/1999/xlink" width="200" height="200"><defs><style type="text/css"></style></defs><path d="M894.94610377 693.18412098c-20.90586011-55.74896031-27.87448015-111.4979206-27.87448016-167.2468809v-139.37240076c0-90.59206049-27.87448015-174.21550095-90.59206049-236.93308129-55.74896031-69.68620038-139.37240075-111.4979206-222.99584121-118.46654064-48.78034027-6.96862004-97.56068053-6.96862004-146.3410208 13.93724008-48.78034027 20.90586011-90.59206049 34.84310019-125.43516068 69.68620037s-62.71758034 69.68620038-83.62344046 118.46654065c-20.90586011 41.81172023-27.87448015 90.59206049-27.87448015 139.37240076v153.30964083c0 55.74896031-13.93724008 111.4979206-27.87448013 167.2468809L100.52341944 811.65066162l34.8431002 48.78034027H379.26822096c0 34.84310019 13.93724008 69.68620038 41.81172023 97.56068053 20.90586011 27.87448015 55.74896031 41.81172023 97.56068051 41.81172023 41.81172023 0 69.68620038-13.93724008 97.56068055-41.81172023 27.87448015-27.87448015 41.81172023-62.71758034 41.81172022-97.56068053h243.90170133l34.84310018-48.78034027-41.81172023-118.46654064z m-327.52514179 216.02722118c-13.93724008 13.93724008-34.84310019 20.90586011-48.78034028 20.9058601-13.93724008 0-34.84310019-6.96862004-48.78034024-20.9058601-13.93724008-13.93724008-20.90586011-27.87448015-20.90586012-48.78034027h139.37240076c0 20.90586011-6.96862004 34.84310019-20.90586012 48.78034027z m48.78034027-118.46654065H184.14685989l27.87448016-76.65482041c13.93724008-62.71758034 27.87448015-125.43516068 27.87448015-188.15274102V372.62759925c0-41.81172023 6.96862004-76.65482042 20.90586012-111.49792061 13.93724008-34.84310019 41.81172023-69.68620038 69.68620036-90.59206049 27.87448015-27.87448015 62.71758034-48.78034027 97.56068055-55.74896031C469.86028146 93.88279774 504.70338164 93.88279774 546.51510187 93.88279774c69.68620038 6.96862004 132.40378072 41.81172023 181.18412097 97.56068052 48.78034027 55.74896031 69.68620038 125.43516068 69.68620039 195.12136106v139.37240076c0 62.71758034 6.96862004 125.43516068 27.87448015 188.15274102l27.87448016 76.65482041H616.20130225z" p-id="1535"></path></svg>